<?xml version="1.0" standalone="no"?>
<!DOCTYPE svg PUBLIC "-//W3C//DTD SVG 20010904//EN"
 "http://www.w3.org/TR/2001/REC-SVG-20010904/DTD/svg10.dtd">
<svg version="1.0" xmlns="http://www.w3.org/2000/svg"
 width="512.000000pt" height="512.000000pt" viewBox="0 0 512.000000 512.000000"
 preserveAspectRatio="xMidYMid meet">
<metadata>
Created by potrace 1.11, written by Peter Selinger 2001-2013
</metadata>
<g transform="translate(0.000000,512.000000) scale(0.100000,-0.100000)"
fill="#000000" stroke="none">
<path d="M2350 4754 c-269 -58 -467 -170 -685 -389 -139 -139 -227 -254 -325
-427 -231 -406 -354 -937 -337 -1458 8 -225 19 -331 57 -520 103 -516 318
-935 637 -1241 201 -192 419 -308 668 -354 131 -25 356 -16 480 18 241 67 439
190 636 394 506 527 738 1410 598 2283 -143 899 -692 1596 -1339 1699 -91 15
-312 12 -390 -5z m-46 -474 l196 -200 0 -303 0 -302 -294 -305 c-162 -167
-298 -306 -303 -307 -5 -2 -99 39 -209 90 l-199 94 -69 309 -68 308 37 76
c147 299 363 545 607 691 45 27 87 49 93 49 7 0 101 -90 209 -200z m785 170
c226 -121 498 -423 635 -706 l38 -80 -68 -307 -69 -307 -204 -95 -205 -95
-230 237 c-127 131 -261 270 -299 309 l-67 71 0 300 0 301 196 201 c108 111
201 201 206 201 6 0 36 -14 67 -30z m-1427 -1672 c109 -51 200 -100 202 -108
3 -8 55 -234 116 -502 l111 -488 -147 -210 c-106 -150 -153 -209 -164 -205 -8
3 -87 21 -175 40 -88 20 -168 38 -179 41 -25 8 -104 178 -160 345 -78 235
-121 464 -133 712 l-6 139 164 164 c90 90 166 164 169 164 3 0 94 -42 202 -92z
m2167 -72 l164 -164 -6 -139 c-14 -302 -88 -630 -202 -895 l-37 -86 -66 -16
c-213 -50 -345 -77 -356 -73 -7 3 -75 93 -150 201 l-136 195 44 193 c24 106
70 306 101 443 31 138 62 267 68 289 12 38 14 40 202 127 105 48 195 88 200
89 6 0 84 -74 174 -164z m-730 -1317 l134 -191 -27 -235 c-21 -192 -29 -238
-43 -249 -35 -27 -189 -102 -261 -128 -208 -74 -476 -74 -684 0 -76 27 -227
102 -265 132 -19 15 -24 38 -43 214 -12 108 -18 203 -14 210 4 7 74 109 156
226 l149 212 382 0 382 -1 134 -190z"/>
</g>
</svg>
